<?xml version="1.0" encoding="iso-8859-1"?>
<!-- Uploaded to: SVG Repo, www.svgrepo.com, Generator: SVG Repo Mixer Tools -->
<!DOCTYPE svg PUBLIC "-//W3C//DTD SVG 1.1//EN" "http://www.w3.org/Graphics/SVG/1.1/DTD/svg11.dtd">
<svg fill="#000000" version="1.1" id="Capa_1" xmlns="http://www.w3.org/2000/svg" xmlns:xlink="http://www.w3.org/1999/xlink" 
	 width="800px" height="800px" viewBox="0 0 946.1 946.1" xml:space="preserve"
	>
<g>
	<g>
		<path d="M359.3,469.4c-2.4,0-4.4,1.9-4.4,4.401v466c0,3.5,2.8,6.299,6.3,6.299H395.8c3.5,0,6.3-2.799,6.3-6.299v-466
			c0-2.401-1.9-4.401-4.4-4.401H359.3L359.3,469.4z"/>
		<path d="M454.8,469.4c-2.4,0-4.4,1.9-4.4,4.401v466c0,3.5,2.8,6.299,6.3,6.299H491.3c3.5,0,6.3-2.799,6.3-6.299v-466
			c0-2.401-1.9-4.401-4.4-4.401H454.8L454.8,469.4z"/>
		<path d="M44.6,436.3l209.6,174.2c3.9,3.199,6.2,8.1,6.2,13.199V940.5c0,3.1,2.5,5.6,5.6,5.6h36c3.1,0,5.6-2.5,5.6-5.6
			c0-49.9,0-416.199,0-471.1c0-4.3-2.1-8.399-5.6-10.899L159.2,354c-3.5-2.6-5.6-6.7-5.6-11.1V132c0-4.2-2.9-7.6-6.8-8.6l-105.1-0.1
			c-4.1,0.9-7.2,4.4-7.2,8.7v282.5C34.399,422.9,38.2,430.9,44.6,436.3z"/>
		<path d="M548.399,469.4c-2.399,0-4.399,1.9-4.399,4.401v466c0,3.5,2.8,6.299,6.3,6.299h34.6c3.5,0,6.3-2.799,6.3-6.299v-466
			c0-2.401-1.899-4.401-4.399-4.401H548.399L548.399,469.4z"/>
		<path d="M638.5,940.5c0,3.1,2.5,5.6,5.6,5.6h36c3.1,0,5.6-2.5,5.6-5.6V623.699c0-5.1,2.301-9.898,6.2-13.199l209.2-173.8
			c6.8-5.6,10.7-13.899,10.7-22.699V132c0-4.4-3.101-7.8-7.2-8.7l-105.1,0.1c-3.9,1.1-6.801,4.4-6.801,8.6v210.9
			c0,4.4-2.1,8.5-5.6,11.1l-143,104.5c-3.5,2.6-5.5,6.6-5.6,10.899C638.5,524.301,638.5,890.6,638.5,940.5z"/>
		<path d="M796,104.4h31.8c0.3,0,0.5,0,0.7-0.1c0.399,0.1,0.8,0.1,1.1,0.1h74.7c4.1,0,7.399-3.6,7.399-8.1V42.1
			c0-27-20-42.1-44.699-42.1c-24.7,0-44.7,15.1-44.7,42.1v14.5c-3-2.2-6.601-3.4-10.4-3.4c-10.5,0-19.1,9.3-19.1,20.8v27
			C792.899,102.9,794.3,104.4,796,104.4z"/>
		<path d="M41.8,104.4h74.7c0.4,0,0.8,0,1.1-0.1c0.2,0.1,0.5,0.1,0.7,0.1h31.8c1.7,0,3.1-1.5,3.1-3.4V74c0-11.5-8.5-20.8-19.1-20.8
			c-3.9,0-7.4,1.3-10.4,3.4V42.1c0-27-20-42.1-44.7-42.1C54.3,0,34.3,15.1,34.3,42.1v54.3C34.399,100.8,37.7,104.4,41.8,104.4z"/>
		<path d="M315,285.8c6,1.5,13.899,3.2,23.399,5.1C343,361.8,401.899,418,474,418c72.1,0,131-56.101,135.6-127.101
			c9.5-1.9,17.4-3.6,23.4-5.1c7.199-1.7,10.8-9.8,7.399-16.3l-24-45.6c0-0.3,0-0.6,0-0.8c0-71.1-52.2-130.1-120.3-140.7
			c-3.4-8.9-12-15.2-22.1-15.2c-10.101,0-18.7,6.3-22.101,15.2C383.699,93,331.6,152,331.6,223.1c0,0.3,0,0.6,0,0.8l-24,45.6
			C304.3,276.1,307.899,284.1,315,285.8z M403.699,165.9c1.101-0.2,2.2-0.3,3.301-0.3h132.3c2.3,0,4.5,0.4,6.6,1.1
			c3.4,1.2,6.4,3.2,8.7,5.9c2.2,2.6,3.8,5.8,4.5,9.3l5.4,27.3c1.6,8.4-4.801,16.1-13.301,16.1H395c-0.301,0-0.7,0-1-0.1
			c-1.9-0.1-3.601-0.6-5.2-1.4c-5.2-2.6-8.3-8.5-7.101-14.7l5.4-27.3c0.4-2.2,1.2-4.2,2.3-6
			C392.399,170.6,397.6,166.9,403.699,165.9z"/>
	</g>
</g>
</svg>