<?xml version="1.0" encoding="iso-8859-1"?>
<!-- Uploaded to: SVG Repo, www.svgrepo.com, Generator: SVG Repo Mixer Tools -->
<svg fill="#000000" height="800px" width="800px" version="1.1" id="Layer_1" xmlns="http://www.w3.org/2000/svg" xmlns:xlink="http://www.w3.org/1999/xlink" 
	 viewBox="0 0 511.988 511.988" xml:space="preserve">
<g>
	<g>
		<path d="M510.962,437.635c-9.823-17.982-19.811-36.112-29.834-54.226c-0.332-1.005-0.845-1.928-1.507-2.724
			c-13.61-24.585-27.276-49.125-40.686-73.2c-18.231-32.729-37.082-66.573-55.417-99.867c-1.468-2.666-4.27-4.321-7.313-4.321
			h-97.78l-0.004-17.256c-0.001-4.61-3.739-8.346-8.348-8.346h-5.728v-19.813h39.801c4.61,0,8.348-3.738,8.348-8.348V70.066
			c0-4.61-3.738-8.348-8.348-8.348s-8.348,3.738-8.348,8.348v71.121h-79.605V70.066c0-4.61-3.738-8.348-8.348-8.348
			s-8.348,3.738-8.348,8.348v79.469c0,4.61,3.738,8.348,8.348,8.348h39.802v19.813h-5.75c-2.214,0-4.338,0.88-5.904,2.445
			c-1.565,1.566-2.444,3.69-2.444,5.905l0.004,17.251h-97.769c-2.995,0-5.762,1.605-7.248,4.206
			c-8.932,15.632-17.716,31.5-26.212,46.847C93.857,269.648,85.1,285.467,76.225,301c-0.128,0.224-0.245,0.453-0.352,0.688
			c-2.651,5.832-5.55,11.104-8.619,16.683c-3.023,5.497-6.147,11.177-9.015,17.437C35.76,374.527,17.564,406.915,0.991,437.7
			c-0.001,0.003-0.003,0.008-0.006,0.011c0,0.001,0,0.001-0.001,0.002c-0.001,0.003-0.003,0.006-0.004,0.009
			c-0.001,0.002-0.002,0.004-0.003,0.007c0,0.001-0.001,0.003-0.002,0.004c-0.001,0.003-0.003,0.008-0.006,0.011
			c-0.287,0.541-0.511,1.106-0.671,1.685c-0.001,0.006-0.002,0.011-0.003,0.016c0,0.001,0,0.001,0,0.002
			c-0.001,0.004-0.002,0.009-0.003,0.013c0,0.001-0.001,0.002-0.001,0.004c-0.001,0.004-0.002,0.008-0.003,0.012
			c0,0.001-0.001,0.003-0.001,0.004c0,0.003-0.001,0.007-0.002,0.011c0,0.002-0.001,0.004-0.001,0.006
			c-0.001,0.003-0.001,0.007-0.002,0.01c0,0.002-0.001,0.004-0.002,0.007c0,0.003-0.001,0.006-0.002,0.009
			c0,0.003-0.001,0.006-0.002,0.009c-0.001,0.003-0.001,0.004-0.002,0.008c0,0.003-0.001,0.007-0.002,0.01
			c0,0.002-0.001,0.004-0.001,0.007c-0.001,0.003-0.002,0.008-0.003,0.011c0,0.001,0,0.002-0.001,0.004
			c-0.001,0.004-0.002,0.01-0.003,0.014c0,0.001,0,0.001,0,0.001c-0.001,0.006-0.002,0.011-0.004,0.017
			c-0.173,0.679-0.257,1.375-0.255,2.07c0,0.002,0,0.006,0,0.009c0,0.002,0,0.004,0,0.007c0,0.004,0,0.008,0,0.012
			c0,0.001,0,0.003,0,0.004c0.007,1.015,0.198,2.028,0.574,2.989v0.001c0.001,0.003,0.002,0.007,0.004,0.01
			c0,0.002,0.001,0.004,0.002,0.007c0.001,0.002,0.002,0.004,0.002,0.007c0.001,0.002,0.002,0.006,0.003,0.009
			c0,0.001,0.001,0.003,0.001,0.004c0.001,0.003,0.003,0.008,0.004,0.011c0,0,0,0.001,0,0.002c0.002,0.004,0.003,0.009,0.006,0.013
			c0.159,0.396,0.35,0.784,0.572,1.158c0.413,0.696,0.919,1.318,1.497,1.854c0.003,0.003,0.008,0.007,0.011,0.01
			c0,0,0,0,0.001,0.001c0.003,0.003,0.007,0.007,0.011,0.01l0.001,0.001c0.003,0.003,0.007,0.007,0.01,0.01
			c0.001,0,0.001,0.001,0.001,0.001c0.003,0.003,0.007,0.007,0.01,0.01c0.001,0,0.002,0.001,0.003,0.002
			c0.002,0.002,0.006,0.006,0.009,0.008c0.001,0.001,0.002,0.002,0.002,0.003c0.003,0.002,0.007,0.006,0.01,0.008
			c0,0.001,0.001,0.002,0.002,0.002c0.003,0.002,0.007,0.006,0.009,0.009c0.001,0.001,0.002,0.001,0.003,0.002
			c0.002,0.002,0.006,0.006,0.009,0.008c0.001,0.001,0.002,0.002,0.004,0.004c0.002,0.002,0.006,0.004,0.008,0.007
			c0.001,0.001,0.003,0.002,0.004,0.003c0.002,0.002,0.006,0.004,0.008,0.007c0.001,0.001,0.003,0.003,0.004,0.004
			c0.002,0.002,0.004,0.004,0.007,0.007c0.002,0.001,0.003,0.003,0.006,0.004c0.002,0.002,0.004,0.003,0.007,0.006
			c0.001,0.001,0.003,0.003,0.006,0.006c0.002,0.002,0.004,0.003,0.007,0.006c0.002,0.001,0.003,0.003,0.006,0.004
			c0.002,0.002,0.004,0.003,0.007,0.006c0.002,0.001,0.003,0.003,0.007,0.006c0.001,0.001,0.003,0.003,0.006,0.006
			c0.002,0.002,0.004,0.003,0.007,0.006c0.002,0.001,0.003,0.003,0.006,0.004c0.002,0.002,0.006,0.004,0.008,0.007
			c0.001,0.001,0.002,0.002,0.004,0.003c0.002,0.002,0.006,0.004,0.009,0.008c0.001,0.001,0.002,0.002,0.003,0.003
			c0.002,0.002,0.006,0.006,0.009,0.008c0.001,0,0.002,0.001,0.003,0.002c0.003,0.002,0.007,0.006,0.01,0.008
			c0,0.001,0.001,0.001,0.002,0.002c0.003,0.003,0.007,0.006,0.01,0.009c0,0,0.001,0.001,0.002,0.002
			c0.003,0.002,0.007,0.006,0.01,0.009c0.001,0,0.001,0.001,0.002,0.002c0.003,0.002,0.007,0.006,0.01,0.009
			c0,0,0.001,0.001,0.002,0.002c0.003,0.002,0.007,0.006,0.01,0.009c0.001,0,0.001,0,0.001,0c0.004,0.003,0.009,0.007,0.012,0.01
			c0,0,0,0,0.001,0.001c0.003,0.003,0.008,0.007,0.012,0.01c0.004,0.003,0.008,0.007,0.012,0.01c0.636,0.53,1.346,0.962,2.107,1.281
			c0.004,0.002,0.01,0.003,0.014,0.006h0.001c0.004,0.002,0.01,0.004,0.015,0.006H5.13c0.004,0.002,0.01,0.003,0.014,0.006h0.001
			c0.004,0.002,0.009,0.003,0.014,0.006h0.001c0.004,0.001,0.009,0.003,0.014,0.006h0.001c0.004,0.001,0.009,0.003,0.013,0.006
			c0.001,0,0.002,0.001,0.003,0.001c0.003,0.002,0.008,0.003,0.012,0.006c0.001,0,0.002,0.001,0.004,0.001
			c0.003,0.001,0.008,0.002,0.011,0.004c0.001,0,0.002,0.001,0.004,0.001c0.003,0.001,0.008,0.003,0.011,0.004
			c0.001,0,0.003,0.001,0.004,0.001c0.003,0.001,0.007,0.002,0.01,0.004c0.001,0,0.003,0.001,0.004,0.002
			c0.007,0.001,0.011,0.004,0.016,0.006c0.003,0.001,0.007,0.002,0.011,0.004c0.001,0,0.003,0.001,0.004,0.001
			c0.003,0.001,0.007,0.002,0.01,0.004c0.002,0,0.004,0.001,0.006,0.002c0.006,0.001,0.011,0.003,0.017,0.007
			c0.006,0.002,0.011,0.003,0.016,0.006c0.006,0.002,0.011,0.003,0.016,0.006c0.006,0.001,0.01,0.004,0.017,0.006
			c0.004,0.001,0.01,0.006,0.016,0.006c0.004,0.001,0.011,0.003,0.016,0.006c0.004,0.001,0.01,0.003,0.016,0.006
			c0.006,0.001,0.01,0.003,0.017,0.006c0.004,0.002,0.009,0.003,0.016,0.006c0.006,0.002,0.011,0.004,0.016,0.006
			c0.006,0.002,0.01,0.003,0.016,0.006c0.006,0.002,0.01,0.003,0.017,0.006c0.004,0.001,0.01,0.003,0.016,0.006
			c0.006,0.002,0.011,0.003,0.016,0.006c0.006,0.001,0.011,0.003,0.016,0.006c0.006,0.002,0.011,0.004,0.017,0.006
			c0.004,0.002,0.01,0.004,0.016,0.006c0.006,0.002,0.011,0.004,0.017,0.006c0.006,0.003,0.012,0.004,0.016,0.006
			c0.007,0.003,0.011,0.004,0.017,0.006c0.003,0.002,0.01,0.003,0.016,0.006c0.006,0.002,0.011,0.003,0.016,0.006
			c0.004,0.002,0.01,0.003,0.016,0.006c0.006,0.001,0.011,0.003,0.017,0.006c0.006,0.001,0.01,0.003,0.016,0.004
			c0.006,0.002,0.011,0.004,0.017,0.006c0.004,0.002,0.011,0.002,0.016,0.006c0.006,0.002,0.011,0.004,0.017,0.006
			c0.004,0,0.011,0.002,0.016,0.004c0.006,0.001,0.011,0.003,0.017,0.006c0.004,0.001,0.009,0.002,0.016,0.004
			c0.004,0.001,0.01,0.003,0.017,0.006c0.006,0.002,0.011,0.003,0.016,0.004c0.004,0.001,0.01,0.003,0.017,0.004
			c0.007,0.002,0.011,0.004,0.017,0.004c0.004,0.003,0.011,0.004,0.016,0.006c0.007,0.002,0.011,0.003,0.016,0.004
			c0.007,0.001,0.012,0.003,0.017,0.004c0.006,0.001,0.011,0.003,0.016,0.004c0.004,0.002,0.011,0.003,0.017,0.004
			c0.006,0.003,0.011,0.004,0.017,0.004c0.004,0.001,0.01,0.002,0.017,0.004c0.004,0,0.01,0.003,0.016,0.004
			c0.006,0.002,0.012,0.003,0.017,0.004c0.007,0.001,0.011,0.003,0.016,0.004c0.004,0,0.011,0.003,0.017,0.004
			c0.006,0.001,0.011,0.002,0.016,0.004c0.007,0.002,0.011,0.002,0.017,0.004c0.006,0.002,0.011,0.003,0.016,0.004
			c0.006,0.002,0.011,0.003,0.017,0.004c0.004,0.001,0.01,0.003,0.017,0.004c0.004,0.001,0.012,0.002,0.017,0.004
			c0.006,0.002,0.011,0.003,0.016,0.004c0.006,0.001,0.011,0.002,0.017,0.004c0.007,0.001,0.011,0.003,0.017,0.004
			c0.006,0.001,0.012,0.002,0.017,0.004c0.006,0.001,0.01,0.002,0.017,0.004c0.006,0.001,0.012,0.002,0.017,0.003
			c0.006,0.002,0.011,0.003,0.017,0.004c0.007,0.001,0.011,0.003,0.017,0.004c0.006,0.001,0.01,0.002,0.016,0.004
			c0.006,0,0.009,0.002,0.017,0.003c0.004,0.001,0.012,0,0.016,0.003c0.007,0.001,0.011,0.004,0.017,0.004
			c0.007,0.001,0.014,0.004,0.017,0.003c0.006,0.001,0.002,0,0.017,0.004c0.01,0.002,0.021,0.004,0.032,0.008
			c0.611,0.146,1.244,0.224,1.888,0.228c0.007,0.003,0.011,0,0.017,0c52.565,0.194,105.602,0.292,158.742,0.292
			c53.14,0,106.382-0.097,159.356-0.292c4.61-0.017,8.334-3.768,8.318-8.378c-0.018-4.61-3.803-8.337-8.378-8.318
			c-101.219,0.371-203.427,0.387-304.018,0.049c6.826-12.528,13.979-25.429,21.618-38.988h62.693c4.61,0,8.348-3.738,8.348-8.348
			s-3.738-8.348-8.348-8.348H53.409c6.142-10.778,12.603-22.005,19.474-33.838c0.139-0.239,0.266-0.485,0.381-0.738
			c2.651-5.832,5.55-11.104,8.619-16.683c3.027-5.505,6.156-11.194,9.027-17.464c0.348-0.61,0.693-1.224,1.041-1.835h62.922
			c4.61,0,8.348-3.738,8.348-8.348s-3.738-8.348-8.348-8.348h-53.498c5.267-9.406,10.469-18.79,15.559-27.984
			c7.704-13.919,15.649-28.269,23.704-42.443h92.921l0.011,38.68c0.001,4.61,3.739,8.346,8.348,8.346h28.174
			c2.214,0,4.338-0.88,5.904-2.445c1.565-1.566,2.444-3.69,2.444-5.905l-0.011-38.676h92.843
			c12.921,23.438,26.066,47.103,39.049,70.427h-53.427c-4.61,0-8.348,3.738-8.348,8.348s3.738,8.348,8.348,8.348h62.724
			c1.579,2.836,3.16,5.673,4.73,8.493c11.385,20.44,22.957,41.216,34.519,62.065h-52.93c-4.61,0-8.348,3.738-8.348,8.348
			s3.738,8.348,8.348,8.348h62.176c7.21,13.036,14.398,26.074,21.513,39.052c-38.167,0.272-75.474,0.234-113.623-0.113
			c-4.599-0.068-8.381,3.661-8.423,8.271c-0.042,4.61,3.661,8.381,8.271,8.424c21.444,0.196,42.618,0.294,63.833,0.294
			c21.21,0,42.46-0.098,64.04-0.294c1.51-0.013,2.961-0.435,4.214-1.185c0.004-0.002,0.009-0.006,0.013-0.008
			c0.004-0.002,0.009-0.006,0.013-0.008c0,0,0,0,0.001,0c0.004-0.002,0.008-0.004,0.012-0.008l0.001-0.001
			c0.004-0.002,0.008-0.004,0.012-0.007c0.001,0,0.002-0.001,0.003-0.002c0.003-0.001,0.007-0.003,0.01-0.006
			c0.001-0.001,0.002-0.001,0.003-0.002c0.003-0.002,0.007-0.003,0.01-0.006c0.001-0.001,0.002-0.001,0.003-0.002
			c0.003-0.001,0.007-0.003,0.01-0.006c0.001-0.001,0.003-0.001,0.004-0.002c0.003-0.002,0.006-0.003,0.009-0.006
			c0.001-0.001,0.003-0.002,0.004-0.002c0.002-0.002,0.006-0.003,0.009-0.006c0.001-0.001,0.003-0.002,0.004-0.003
			c0.003-0.001,0.006-0.003,0.009-0.006c0.001-0.001,0.003-0.002,0.004-0.003c0.002-0.001,0.006-0.003,0.009-0.006
			c0.001-0.001,0.003-0.002,0.006-0.003c0.002-0.001,0.004-0.002,0.007-0.004s0.004-0.003,0.007-0.004s0.004-0.002,0.007-0.004
			c0.002-0.002,0.004-0.003,0.008-0.004c0.002-0.001,0.003-0.002,0.006-0.003c0.002-0.001,0.006-0.003,0.008-0.004
			c0.001-0.001,0.003-0.002,0.004-0.003c0.003-0.002,0.007-0.003,0.009-0.006c0.001-0.001,0.003-0.002,0.004-0.003
			c0.003-0.001,0.007-0.003,0.009-0.006c0.001,0,0.003-0.001,0.004-0.002c0.002-0.002,0.006-0.004,0.009-0.006
			c0.001-0.001,0.003-0.002,0.004-0.003c0.002-0.002,0.006-0.004,0.009-0.006c0.001-0.001,0.002-0.001,0.003-0.002
			c0.003-0.002,0.007-0.004,0.01-0.007c0.001,0,0.002-0.001,0.002-0.002c0.003-0.002,0.008-0.004,0.011-0.007
			c0,0,0.001,0,0.001-0.001c0.003-0.002,0.009-0.006,0.012-0.008h0.001c0.004-0.003,0.009-0.006,0.013-0.009
			c0.004-0.003,0.009-0.006,0.013-0.009h0.001c0.004-0.003,0.009-0.006,0.013-0.009c0,0,0,0,0.001-0.001
			c0.004-0.002,0.009-0.006,0.012-0.008c0,0,0.001,0,0.001-0.001c0.004-0.002,0.008-0.006,0.012-0.008
			c0.443-0.298,0.858-0.639,1.239-1.02c0.001,0,0.002-0.001,0.002-0.002c0.003-0.003,0.006-0.007,0.009-0.009
			c0.001-0.002,0.003-0.003,0.006-0.006s0.004-0.004,0.007-0.007c0.002-0.002,0.004-0.004,0.007-0.007
			c0.001-0.001,0.003-0.003,0.006-0.006c0.002-0.002,0.004-0.006,0.007-0.008c0.001-0.001,0.003-0.003,0.004-0.004
			c0.484-0.491,0.912-1.046,1.268-1.657c0.076-0.13,0.148-0.262,0.216-0.395c0,0,0,0,0-0.001c0.002-0.004,0.004-0.009,0.007-0.013
			c0-0.001,0-0.001,0.001-0.002c0.002-0.004,0.004-0.009,0.007-0.013l0.001-0.002c0.002-0.004,0.004-0.009,0.007-0.012
			c0-0.001,0-0.002,0.001-0.002c0.002-0.004,0.004-0.008,0.007-0.012c0-0.001,0.001-0.002,0.001-0.003
			c0.002-0.003,0.003-0.008,0.006-0.011c0-0.001,0.001-0.002,0.001-0.003c0.002-0.004,0.003-0.008,0.006-0.012
			c0-0.001,0.001-0.002,0.001-0.003c0.002-0.003,0.003-0.008,0.006-0.011c0-0.001,0.001-0.002,0.001-0.004
			c0.002-0.003,0.003-0.007,0.006-0.011c0.001-0.001,0.001-0.003,0.002-0.004c0.001-0.003,0.003-0.007,0.004-0.01
			c0.001-0.001,0.001-0.003,0.002-0.006c0.001-0.003,0.003-0.007,0.004-0.01c0.001-0.002,0.001-0.003,0.002-0.006
			c0.001-0.003,0.003-0.007,0.004-0.009c0-0.002,0.001-0.004,0.002-0.006c0.001-0.003,0.002-0.007,0.004-0.01
			c0.001-0.002,0.002-0.003,0.003-0.006c0.001-0.003,0.002-0.006,0.004-0.009c0.001-0.002,0.001-0.003,0.002-0.006
			c0.001-0.003,0.003-0.006,0.004-0.009c0.001-0.002,0.002-0.004,0.003-0.007c0.001-0.002,0.002-0.006,0.004-0.008
			c0.001-0.002,0.002-0.004,0.003-0.008c0.001-0.003,0.002-0.004,0.003-0.008c0.001-0.003,0.002-0.006,0.003-0.008
			c0.001-0.002,0.002-0.004,0.003-0.008c0.001-0.002,0.002-0.004,0.003-0.008c0.001-0.003,0.002-0.004,0.003-0.008
			c0.001-0.002,0.002-0.006,0.003-0.008c0.001-0.002,0.002-0.004,0.003-0.008c0.001-0.002,0.002-0.004,0.003-0.008
			c0.001-0.002,0.002-0.004,0.003-0.008c0.001-0.003,0.002-0.004,0.003-0.008c0.001-0.002,0.002-0.006,0.003-0.008
			c0.001-0.002,0.002-0.004,0.003-0.007c0.001-0.002,0.002-0.006,0.003-0.008c0.001-0.002,0.002-0.004,0.003-0.008
			c0.001-0.003,0.002-0.006,0.003-0.008c0.001-0.002,0.002-0.004,0.003-0.008c0.001-0.003,0.002-0.004,0.003-0.008
			c0.001-0.002,0.002-0.006,0.003-0.008c0.001-0.002,0.002-0.004,0.003-0.008c0.001-0.002,0.002-0.006,0.003-0.008
			s0.002-0.004,0.003-0.008c0.001-0.003,0.002-0.006,0.003-0.008c0.001-0.002,0.002-0.004,0.003-0.008
			c0.001-0.003,0.002-0.004,0.003-0.007c0.001-0.003,0.002-0.006,0.003-0.009c0.001-0.002,0.002-0.004,0.003-0.008
			s0.002-0.004,0.003-0.008c0.001-0.003,0.002-0.006,0.003-0.008c0.001-0.002,0.002-0.004,0.003-0.008
			c0.001-0.002,0.002-0.004,0.003-0.008c0.001-0.003,0.002-0.006,0.003-0.008c0.001-0.002,0.002-0.004,0.003-0.007
			s0.002-0.006,0.003-0.008c0.001-0.002,0.002-0.006,0.003-0.008c0.001-0.002,0.002-0.006,0.003-0.008s0.002-0.006,0.003-0.008
			c0.001-0.002,0.001-0.004,0.002-0.007c0.001-0.002,0.002-0.006,0.003-0.008s0.002-0.006,0.003-0.008
			c0.001-0.002,0.002-0.004,0.003-0.007c0.001-0.002,0.002-0.006,0.003-0.008s0.002-0.004,0.003-0.008
			c0.001-0.003,0.002-0.006,0.003-0.009c0.001-0.001,0.002-0.003,0.002-0.006c0.001-0.003,0.002-0.007,0.004-0.01
			c0-0.001,0.001-0.003,0.002-0.006c0.001-0.003,0.002-0.007,0.004-0.01c0-0.001,0.001-0.003,0.001-0.004
			c0.001-0.003,0.003-0.007,0.004-0.011c0-0.001,0.001-0.003,0.002-0.004c0.001-0.003,0.002-0.007,0.004-0.011
			c0-0.001,0.001-0.003,0.002-0.006c0.001-0.003,0.002-0.007,0.003-0.01c0.001-0.002,0.001-0.003,0.002-0.006
			c0.001-0.003,0.002-0.007,0.003-0.01c0.001-0.001,0.001-0.002,0.002-0.004c0.001-0.003,0.002-0.007,0.004-0.01
			c0-0.002,0.001-0.003,0.002-0.006c0.001-0.003,0.002-0.007,0.004-0.011c0-0.001,0.001-0.002,0.001-0.004
			c0.001-0.003,0.003-0.008,0.004-0.011c0-0.001,0.001-0.002,0.002-0.004c0.001-0.003,0.002-0.008,0.004-0.011
			c0-0.001,0.001-0.002,0.001-0.003c0.001-0.003,0.003-0.008,0.004-0.012c0-0.001,0-0.002,0.001-0.003
			c0.001-0.004,0.003-0.008,0.004-0.012c0-0.001,0.001-0.002,0.001-0.003c0.001-0.004,0.002-0.008,0.004-0.012
			c0-0.001,0.001-0.002,0.001-0.004c0.001-0.003,0.003-0.008,0.004-0.011c0-0.001,0-0.002,0.001-0.003
			c0.001-0.003,0.003-0.008,0.004-0.012c0-0.001,0.001-0.002,0.001-0.003c0.001-0.004,0.003-0.008,0.004-0.012v-0.001
			c0.002-0.006,0.003-0.01,0.006-0.014c0-0.001,0-0.001,0-0.002c0.001-0.004,0.003-0.009,0.006-0.014v-0.001
			c0.002-0.004,0.003-0.01,0.006-0.014v-0.001c0.001-0.004,0.003-0.009,0.006-0.014c0,0,0,0,0-0.001
			c0.002-0.004,0.003-0.01,0.006-0.014c0,0,0-0.001,0.001-0.002c0.001-0.004,0.003-0.009,0.004-0.013v-0.001
			c0.002-0.004,0.003-0.01,0.006-0.014v-0.001c0.001-0.004,0.003-0.01,0.006-0.016c0.002-0.004,0.003-0.01,0.006-0.016
			C512.306,442.261,512.13,439.758,510.962,437.635z M250.263,250.324l-0.016-55.932h11.479l0.016,55.932H250.263z"/>
	</g>
</g>
</svg>